<mxfile host="app.diagrams.net" modified="2021-02-25T07:24:24.847Z" agent="5.0 (Windows NT 10.0; Win64; x64) AppleWebKit/537.36 (KHTML, like Gecko) Chrome/88.0.4324.182 Safari/537.36" etag="3u3dObq1kwimhuvbfwyE" version="14.4.3" type="github">
  <diagram id="EKifPw-Zc5hJ09drJ-pK" name="Page-1">
    <mxGraphModel dx="868" dy="486" grid="1" gridSize="10" guides="1" tooltips="1" connect="1" arrows="1" fold="1" page="1" pageScale="1" pageWidth="850" pageHeight="1100" math="0" shadow="0">
      <root>
        <mxCell id="0" />
        <mxCell id="1" parent="0" />
        <mxCell id="cdu_c7-ykwFzriZVVjbD-16" value="" style="shape=image;verticalLabelPosition=bottom;labelBackgroundColor=#ffffff;verticalAlign=top;aspect=fixed;imageAspect=0;image=data:image/png,iVBORw0KGgoAAAANSUhEUgAAAJcAAADXCAYAAAAXx8MVAAALy0lEQVR4Ae2czWskVRTF/bOycudKBhEXugoyCqJIVBQFRRKQWagQBoRBIrOYLBwhIgrRhQhiEIwLs3A2IgoGB8ePQQZGF+Pmyenum+6qVHV9vXr3vlunoHn9UV3v3nN+fevVq6q+L2S6/HfvXjj55qvw8fvvzR6728+Ht159pvCQz7796vPw7z93M80037Dvyyn0O3/fDl9/cRjeufRKePaxB2atAHTju2/CD99/V3jIZ+++/fpsfcD3+ScfhL/++C2ntLONNQu4AMPVy2+EFzYfnLWoWKhcXRfAd/29y+HlJx6egXn6849dN8H1OyhgGi5UKsDw2tOPzipWh7waVwWgO89tziBjJWuUq9cKZuHCOAkVBruxPlWqrRqATPpp+x2u104Bk3ChWmGcNCZUZXk0+izH4O21KbhwRIfBOqqVxoJqeemlJzngjyS+GbgAFo7msJvSXDDIRxwchw13wQxcmKfCdIKF5bdff5lVMM6NDXPDBFwY72jtCuvkA+gAnkt/BdTh+vKzj8L+lTf7ZzDiNwE8wOfSTwFVuDCPhWmAlEeFXWXCAYb2OLBrzFbWV4UrB+MwwMdkK5fuCqjBlZNpmHPDNAWXbgqowYVqkMu5vRx2391sT7O2Clw//XBjdqifJsU4vbB6dddRBa4Pr10Jnx5c6x6t4jewWwRgXNoroAIXrnLARGVOCyZUccmP5SNba3omhwtQAa4cF0tnEXLQLzlc2B1it5jjwknVbq4lh8viqZ62kmEyFXNzXNopkByunI+6cjzKbYfBOGslhwuXs+Ba9hwXXIaD01Vc2imQHC6Yk/O1UhcvbLRTlmuF5HDhcB4z3rkuhKu9c8nhwmXEGLvkuOBHgR8Hl3YKJIcrhysh6qTL6WR7XQ4p308OFy4MxAWCOS68OrWba8nhklvsu4VpY23LV83aUKgYRXK4MA2B6YgcF/ylAP6rgks7BZLDhbDwJyI53lmTa9ztUIi/lgpcOVaAnCtufGzabVEFrhzP0eV8TrQdCvHXUoEL10Rhpj6XydTc4o2PSb8tqsCFUHM68uKlNpnBhXBzuEmDN2f0AwvfUqtc6DyHQTLHWpnChbAtz9gDflzazOvm+wGmWrkQMoyDgTDS0oLLgrDbznE+zoqO6nBBCBgII61c54V4cPVGbncoWYFK4jABF4KR/8TSBgxg4coNK/8VJkbl2JqBC+LJJS1a13sJ4AQrDsqm4EJKqBw4sZ36shycNeCuMA5UshVzcCEwDPJxFInd09jjHsxjSV8Am0s8BUzCJemhmuDubJzojn2qCCDh5lychkpdJSU/761puER8XEMFCAAZ/hBkyLwTxlOYGMX2cPf3kG1JfGyrFcgCLoQOCAAZbqp96pH7Z3NjOOeH+TE8qiCRz1CZsItd/R53gdVAxHw3G7jKSUsFwuAfD4CD275WH/IZxlTYxVYBWN4uX8dTIFu46iTgfYV1yqR/n3Cl13wyPRKuyVidPlHClV7zyfRIuCZjdfpECVd6zSfTI+GajNXpEyVc6TWfTI+EazJWp0+UcKXXfDI9Eq7JWJ0+UcKVXvPJ9Ei4JmN1+kQJV3rNJ9Mj4ZqM1ekTJVzpNZ9Mj4RrMlanT5Rwpdd8Mj0SrslYnT5RwpVe88n0SLgmY3X6RAlXes0n0+NguHD71urtXHxevL2trAdugRv7Lwqs0DsYLiuJSBy8tUyU0G8Jl74HbiMgXG6t1U+McOl74DYCwuXWWv3ECJe+B24jIFxurdVPjHDpe+A2AsLl1lr9xAiXvgduIyBcbq3VT4xw6XvgNgLC5dZa/cQIl74HbiMgXG6t1U+McOl74DYCwuXWWv3ECJe+B24jIFxurdVPjHDpe+A2AsLl1lr9xAiXvgduIyBcbq3VT4xw6XvgNgLC5dZa/cQIl74HbiMgXG6t1U+McOl74DYCwuXWWv3ECJe+B24jIFxurdVPjHDpe+A2AsLl1lr9xAiXvgduIyBcbq3VT4xw6XvgNgLC5dZa/cQIl74HbiMgXG6t1U+McOl74DYCwuXWWv3ECJe+B24jIFxurdVPjHDpe+A2AsLl1lr9xAiXvgduIyBcbq3VT4xw6XvgNgLC5dZa/cQIl74HbiMgXG6t1U+McOl74DYCwuXWWv3ECJe+B24jIFxurdVPzB1cLz7+ULj95+/6yjKC4Aquq5ffCJ9cvxreevWZ8O8/d2mvsgJu4AJYX39xOJPz9OcfCZgyWOjeBVyrYImmBEyU0Guzh6sKLJGTgIkSOm3WcK0DS+QkYKJE+jZbuNqAJXISMFEibZslXF3AEjkJmCiRrs0Orj5giZwETJRI02YF1xCwRE4CJkqM32YDVwywRE4CJkqM22YBV0ywRE4CJkqM15qHawywRE4CJkqM05qGa0ywRE4CJkrEb83ClQIskZOAiRJxW5NwpQRL5CRgokS81hxcGmCJnARMlIjTmoJLEyyRk4CJEsNbM3BZAEvkJGCixLDWBFyWwBI5CZgo0b9Vh8siWCInARMl+rWqcFkGS+QkYKJE91YNrhzAEjkJmCjRrVWBKyewRE4CJkq0b5PDlSNYIicBEyXatUnhyhkskZOAiRLNbTK4PIAlchIwUWJ9mwQuT2CJnARMlKhvR4fLI1giJwETJarbUeHyDJbIScBEifPtaHBNASyRk4CJEsV2FLimBJbIScBEiWUbHa4pgiVyEjBRYt5GhWvKYImsBEyUiPgXSgRrKSoBi1i5CNYSLHlGwCJULoIlOJ1vpw7YoDEXwToPVPmdKQPWG679K2+e/QdpWVC+LioggP13717xA+evesN15+/bzqWJm94U9eoNV1zpuTWPChAuj64ayYlwGTHCYxiEy6OrRnIiXEaM8BgG4fLoqpGcCJcRIzyGQbg8umokJ8JlxAiPYRAuj64ayYlwGTHCYxiEy6OrRnIaFa6T3Y2wdxw3U2zz4oWdcBJ3s2u3dutgM1y8sBEubqXtd21QGXw4Hlw398M2DNk9iipDeriOwh7yWDxi/1iiimNsY6PBNYcApmyGw5vxsk4PVwisXP38Gwmu4q89ZvXSgKuftPzWKHDJL33v+DQcbnWsXjePwuHuYoyz2BVtY6yzqH7VcC362doPt0IIt453wvbW6jY2w/bu0eyzpeWn4eQA6y13eav9LNfDs+L2l58tfkRn/e6HvcZ+l9/2/mwEuIqCh+Od2Xhl++C0UUuBUsY35RawNsF1IoPvlXHScjsyID8KeytQLT+v+yE0w7W234keCESHSwBZwiTVS4ytZky+hzHa3kGxyty6WYahvC3pQ6rQZjg8XoF59fu7+2fVtNgPwJWjwnkFXEbaAJeAvLWzpt+4BzbL2Ow+iwyXmFwyv7F6yRht3eBfqhYAKm1fdlszk8ufifjSR111mq83r4zlOFrAtdg1Sm9nrRw1n4v5bA23T+LCVQuRGFttvFStZbWr07tuOwL1+nm1OTgN0yOLHIpTDs1wFdcvxl8NbHEdj68iwiUGrweoyoTqcVS13NXrru9btiQQV8Ug68gYsbhOE1zVOcs25/2Wq6F86reNB9fiF18cHMsYaKWt2H1UA1Mt+tyospld4GowuU/lqshpNXrCtapGj+dzQFYgkkFuRVusCqHmCLA6iGoQ6ypLcRutTCZcRdEGvIpTuWTQ2nSqp2a9uekbYfCYK0YFIVwDcCp+NQpc82rSsLtZ9Fu9rgzU122jxdEi4Sq6q/xqOFxSjRqMPctT1i9VOalelfNcx5j5Xt3l1oy5GmLgbvHMhSRPBsMlUJTHUfXRy+D7fJWSbdUeFGzth8PKS2445qrXW++TgXAtdmcNFeNceotxTeUYazabvnpecCPgnJ/MuHNAf05Ns28MhMtsXgzMgAKEy4AJXkMgXF6dNZAX4TJggtcQCJdXZw3kRbgMmOA1BMLl1VkDeREuAyZ4DYFweXXWQF6Ey4AJXkMgXF6dNZAX4TJggtcQCJdXZw3kRbgMmOA1BMLl1VkDeREuAyZ4DYFweXXWQF6Ey4AJXkMgXF6dNZAX4TJggtcQ/gfFh7uVwb6aTAAAAABJRU5ErkJggg==;" vertex="1" parent="1">
          <mxGeometry x="40" y="430" width="126.42" height="180" as="geometry" />
        </mxCell>
        <mxCell id="cdu_c7-ykwFzriZVVjbD-17" value="" style="shape=image;verticalLabelPosition=bottom;labelBackgroundColor=#ffffff;verticalAlign=top;aspect=fixed;imageAspect=0;image=data:image/png,iVBORw0KGgoAAAANSUhEUgAAAJgAAADFCAYAAACo0jsIAAALN0lEQVR4Ae2cwWst1R3H/bOy6s6VPEpxoatQ0oJUSrQoLVhKAuJChfBAeEjkLcyiFiJSIe1ChGIQTBdmoRuRCg0Gn9WHCOriuTnlO7m/+2bmzr1n7v2dc+Z8k+9AOLk5c2Z+8/l9cubMmZn7SKhg+fnBg3D+0Qfh7399o/k52Hs2vPLC050fq/v3B++Fn378oYKoFcIYAo+MWSnHOt9/dz98+P5JeO2lP4XfP/loU5pEn378Ufjsk487P1b3+qt/adaHgO+9+7fw7f++yhGetpmIQHHBIMTd2y+GP2w/1pToudCDrbtAwLfeuB3++JtfNXJefPH5upvQ+gUIFBMMPRaE+PPvnmh6rpTHBkn3n9luRFOPlpKsf1tFBMO4CT0NTmmb9FZjDxOi2X7GttF6eQlkFwy9FsZNOcXqI5pin/0Y9PmKQDbBcKWHATx6rSkW9JovPf9bXQRMAb+1zyyCQS5c5eGUNeWCgT/i0LhsuixkEQzzWJhqqGH56sv/Nj2Z5s6myUZywTD+meq0uAwhZIf0WsoTSCrYv/75Tji683L5oxixR0gP+bWUJZBMMMxzYYqg5NXiuqhw0TH1uHDdmNnXTyYYQ/Iw6MeErJZyBJIIxpQ4zMlhCkNLGQJJBEOvwHIvkOFUXib1ZfbiFuw/n33aTAOUCTfNXtSLpeE4Zituwd5+8074x/GbY/ZVzTo4RUIyLfkJuAXD0xGYzGRaMOmKx4VqvuJl4rkqVpdgEAuCMS413W1g5Dc2ZpdgODXiFMm4aOK1TNZcgtV4W2gsNky4Yu5OS14CLsGYr8YYr37zqpBn6y7B8CgMno1nXPAID25taclLwCUYEsT8rNXOra28dLX14BIMl/qYGWddJFj+zLkEwyPJGMswLvjHwD+IlrwEXIIxPEGxDB/TDfplx8Dwd5dgeLgQDxkyLnrKtUzWXILZ6/xlQk27l5qfvk17pNNuzSUYpigwVcG44OsL8N0YWvIScAmG0PDFJYxv7LDGnVeH9Ft3C8bYEzD3vOkVyLtFt2CM9/SY76Hm1SH91t2C4ZkqzOizTLiyxZs+5WW36BYM4TJdkekxHULBEDLDix964aOsXNhbkh4MG2IYOGvsRSwYQq95Zh//AHhMWs/hl5UsWQ+GsJE8JBHJrGnBI0U4hTPO19XEcZNYkgqGAJBEJLOW58QQD576YHvzaZNk1tgmuWA4SPtOrqklg1x44qOW7yqrUYDcMWURDEHb4zBTPS9mkkuu3Aqt3n42wbBb9CC4GV76kR7cXdBpcXXiS9VmFQwHgYE/ri5xqso9DsI8l+0LcmuZnkB2wewQ0avgLXDcHE99Wwky4QVg3LIq3Vva8akcJlBMMNs9nsGCCBANX0LimZfC+AqTp9ge3jL3bMviU5mWQHHBED5EgGh4cfepx3/RzJ3hHiHmz/AzJIrVoYfC6bbdTqfDtFKk3NokgvUPwHoiXBDgB/LglbL2j9VhjIXT7ZCE/e3q8/QEqhBsGQa9t7iMDM/fJRhPrigjlWCUaeMJWoLx5IoyUglGmTaeoCUYT64oI5VglGnjCVqC8eSKMlIJRpk2nqAlGE+uKCOVYJRp4wlagvHkijJSCUaZNp6gJRhPrigjlWCUaeMJWoLx5IoyUglGmTaeoCUYT64oI5VglGnjCVqC8eSKMlIJRpk2nqAlGE+uKCOdC4bXwtqvien37mtzfR54tS73VyFQGtULei5Y7+9VfNRra1WkwRWEBHPhU+MYAQkWI6R6FwEJ5sKnxjECEixGSPUuAhLMhU+NYwQkWIyQ6l0EJJgLnxrHCEiwGCHVuwhIMBc+NY4RkGAxQqp3EZBgLnxqHCMgwWKEVO8iIMFc+NQ4RkCCxQip3kVAgrnwqXGMgASLEVK9i4AEc+FT4xgBCRYjpHoXAQnmwqfGMQISLEZI9S4CEsyFT41jBCRYjJDqXQQkmAufGscISLAYIdW7CEgwFz41jhGQYDFCqncRkGAufGocIyDBYoRU7yIgwVz41DhGQILFCKneRUCCufCpcYyABIsRUr2LgARz4VPjGAEJFiOkehcBCebCp8YxAhIsRkj1LgISzIVPjWMEJFiMkOpdBCSYC58axwhIsBgh1bsISDAXPjWOEZBgMUKqdxGQYC58ahwjIMFihFTvIiDBXPjUOEZAgsUIqd5FQIK58KlxjIAEixFSvYuABHPhU+MYAQkWI6R6FwEJ5sKnxjECEixGSPUuAhLMhU+NYwQkWIyQ6l0EqhbsuV//Mtz/5mvXAarxtASqFezu7RfDu2/dDa+88HT46ccfpqWkvW9MoErBINeH7580B3XxxeeSbOP0Tt+wOsHachkeSWYk+MqqBBuSy5BKMiPBVVYj2Cq5DKkkMxI8ZRWCjZHLkEoyI8FRTi7YOnIZUklmJOovJxVsE7kMqSQzEnWXkwnmkcuQSjIjUW85iWAp5DKkksxI1FkWFyylXIZUkhmJ+sqiguWQy5BKMiNRV1lMsJxyGVJJZiTqKYsIVkIuQyrJjEQdZXbBSsplSCWZkZi+zCrYFHIZUklmJKYtswk2pVyGVJIZienKLILVIJchlWRGYpoyuWA1yWVIJZmRKF8mFaxGuQypJDMSZctkgtUslyGVZEaiXJlEMAa5DKkkMxJlSrdgTHIZUklmJPKXLsEY5TKkksxI5C03FoxZLkMqyYxEvnIjwa6DXIZUkhmJPOXagl0nuQypJDMS6cu1BLuOchlSSWYk0pajBbvOchlSSWYk0pWjBLsJchlSSWYk0pRRwW6SXIZUkhkJf7lSsJsolyGVZEbCVy4V7CbLZUglmZHYvBwUbD25TsPhra2wc3C6OorLo7A3Zr3VWyleK8l8yBcEW08u7Px6C4YjlGSbS9YRbH25boZgkiyBYJvJdXMEk2SbSdb0YEd3Xp5/J+r6m0lwirw8DYe7W2EHY7RbW2Hv4CicX66I5PI0nBxsX43pZm12bm2vaNeKsbOv7XCyaj8DIdjp8ucHDwZq9ac+gUaw77+73//7Gp9byVvVatkg3/4+F8VE2w6HZ4sbvHe8PRfRhOyXe8cXvYazGHd7Uu4ehXu9Ncd89PEas4frs05nDLbZYfkEM2H2jk/nyb53dhQOdxd7F1sXvdUh1u/0Phfhqt2sF+xINouxkRji9gXc7MjVKk5gcsHODyDEfjiPxWo93Yhe52qbbUEfCjbUK8Z2rfrNCUwumPVKi6e17kEtStOt7366CCe7W+HhNk2wESJ3N6RPTgKTCxbClQzNOGp3P5xfDp2+WussjNVszDZQznu7mWDzz05qaj6aQAWCIdaLcH68//CqsBGtfQzWAw1ItFI467Fm7WN3G9q71O9JCKQTLNY7zMZQD09bQ/G3RWuPoWY9WGwfQ5ts/ibBlqLJXJFAMDt9WW+xJOKz/WZ6Ydwge1GI9cZg/RgWt9dfQ5/zEEggWAhXyW8PqvvBmoTtXqm/TvvzQI+1xlUkLhz2OqdZCdamW/L3JIIFS34zC9+dn2rPTS0+cQGRZnNa86O+COcHs8nU3pjJrjh30ObsYj5v1jS97M6D7XROpxJsjrfwL2kEQ9BnrUH60MC7k/DZUeK2zdC6zd+Ge7u5fEvbbYWuXNiXBCvs1Xx36QTDJi+vep/muS8TYKGHmu979stim43vRS6d5pBgfeqlPqcVrFTU2g8NAQlGkyrOQCUYZ95oopZgNKniDFSCceaNJmoJRpMqzkAlGGfeaKKWYDSp4gxUgnHmjSZqCUaTKs5AJRhn3miilmA0qeIMVIJx5o0maglGkyrOQCUYZ95oopZgNKniDFSCceaNJmoJRpMqzkAlGGfeaKKWYDSp4gz0/4gSWMCyAbHJAAAAAElFTkSuQmCC;" vertex="1" parent="1">
          <mxGeometry x="570" y="458.36" width="117" height="151.64" as="geometry" />
        </mxCell>
      </root>
    </mxGraphModel>
  </diagram>
</mxfile>
